<svg width="625" height="40" viewBox="0 0 625 40" fill="none" xmlns="http://www.w3.org/2000/svg">
<rect opacity="0.1" width="625" height="40" rx="10" fill="white"/>
<path d="M18.576 25.084C18.024 25.084 17.528 24.988 17.088 24.796C16.656 24.596 16.316 24.324 16.068 23.98C15.82 23.628 15.692 23.224 15.684 22.768H16.848C16.888 23.16 17.048 23.492 17.328 23.764C17.616 24.028 18.032 24.16 18.576 24.16C19.096 24.16 19.504 24.032 19.8 23.776C20.104 23.512 20.256 23.176 20.256 22.768C20.256 22.448 20.168 22.188 19.992 21.988C19.816 21.788 19.596 21.636 19.332 21.532C19.068 21.428 18.712 21.316 18.264 21.196C17.712 21.052 17.268 20.908 16.932 20.764C16.604 20.62 16.32 20.396 16.08 20.092C15.848 19.78 15.732 19.364 15.732 18.844C15.732 18.388 15.848 17.984 16.08 17.632C16.312 17.28 16.636 17.008 17.052 16.816C17.476 16.624 17.96 16.528 18.504 16.528C19.288 16.528 19.928 16.724 20.424 17.116C20.928 17.508 21.212 18.028 21.276 18.676H20.076C20.036 18.356 19.868 18.076 19.572 17.836C19.276 17.588 18.884 17.464 18.396 17.464C17.94 17.464 17.568 17.584 17.28 17.824C16.992 18.056 16.848 18.384 16.848 18.808C16.848 19.112 16.932 19.36 17.1 19.552C17.276 19.744 17.488 19.892 17.736 19.996C17.992 20.092 18.348 20.204 18.804 20.332C19.356 20.484 19.8 20.636 20.136 20.788C20.472 20.932 20.76 21.16 21 21.472C21.24 21.776 21.36 22.192 21.36 22.72C21.36 23.128 21.252 23.512 21.036 23.872C20.82 24.232 20.5 24.524 20.076 24.748C19.652 24.972 19.152 25.084 18.576 25.084ZM29.467 21.46C29.467 21.668 29.455 21.888 29.431 22.12H24.175C24.215 22.768 24.435 23.276 24.835 23.644C25.243 24.004 25.735 24.184 26.311 24.184C26.783 24.184 27.175 24.076 27.487 23.86C27.807 23.636 28.031 23.34 28.159 22.972H29.335C29.159 23.604 28.807 24.12 28.279 24.52C27.751 24.912 27.095 25.108 26.311 25.108C25.687 25.108 25.127 24.968 24.631 24.688C24.143 24.408 23.759 24.012 23.479 23.5C23.199 22.98 23.059 22.38 23.059 21.7C23.059 21.02 23.195 20.424 23.467 19.912C23.739 19.4 24.119 19.008 24.607 18.736C25.103 18.456 25.671 18.316 26.311 18.316C26.935 18.316 27.487 18.452 27.967 18.724C28.447 18.996 28.815 19.372 29.071 19.852C29.335 20.324 29.467 20.86 29.467 21.46ZM28.339 21.232C28.339 20.816 28.247 20.46 28.063 20.164C27.879 19.86 27.627 19.632 27.307 19.48C26.995 19.32 26.647 19.24 26.263 19.24C25.711 19.24 25.239 19.416 24.847 19.768C24.463 20.12 24.243 20.608 24.187 21.232H28.339ZM31.0004 21.688C31.0004 21.016 31.1364 20.428 31.4084 19.924C31.6804 19.412 32.0524 19.016 32.5244 18.736C33.0044 18.456 33.5364 18.316 34.1204 18.316C34.6964 18.316 35.1964 18.44 35.6204 18.688C36.0444 18.936 36.3604 19.248 36.5684 19.624V18.424H37.6724V25H36.5684V23.776C36.3524 24.16 36.0284 24.48 35.5964 24.736C35.1724 24.984 34.6764 25.108 34.1084 25.108C33.5244 25.108 32.9964 24.964 32.5244 24.676C32.0524 24.388 31.6804 23.984 31.4084 23.464C31.1364 22.944 31.0004 22.352 31.0004 21.688ZM36.5684 21.7C36.5684 21.204 36.4684 20.772 36.2684 20.404C36.0684 20.036 35.7964 19.756 35.4524 19.564C35.1164 19.364 34.7444 19.264 34.3364 19.264C33.9284 19.264 33.5564 19.36 33.2204 19.552C32.8844 19.744 32.6164 20.024 32.4164 20.392C32.2164 20.76 32.1164 21.192 32.1164 21.688C32.1164 22.192 32.2164 22.632 32.4164 23.008C32.6164 23.376 32.8844 23.66 33.2204 23.86C33.5564 24.052 33.9284 24.148 34.3364 24.148C34.7444 24.148 35.1164 24.052 35.4524 23.86C35.7964 23.66 36.0684 23.376 36.2684 23.008C36.4684 22.632 36.5684 22.196 36.5684 21.7ZM41.1098 19.492C41.3018 19.116 41.5738 18.824 41.9258 18.616C42.2858 18.408 42.7218 18.304 43.2338 18.304V19.432H42.9458C41.7218 19.432 41.1098 20.096 41.1098 21.424V25H40.0178V18.424H41.1098V19.492ZM44.5863 21.7C44.5863 21.02 44.7223 20.428 44.9943 19.924C45.2663 19.412 45.6423 19.016 46.1223 18.736C46.6103 18.456 47.1663 18.316 47.7903 18.316C48.5983 18.316 49.2623 18.512 49.7823 18.904C50.3103 19.296 50.6583 19.84 50.8263 20.536H49.6503C49.5383 20.136 49.3183 19.82 48.9903 19.588C48.6703 19.356 48.2703 19.24 47.7903 19.24C47.1663 19.24 46.6623 19.456 46.2783 19.888C45.8943 20.312 45.7023 20.916 45.7023 21.7C45.7023 22.492 45.8943 23.104 46.2783 23.536C46.6623 23.968 47.1663 24.184 47.7903 24.184C48.2703 24.184 48.6703 24.072 48.9903 23.848C49.3103 23.624 49.5303 23.304 49.6503 22.888H50.8263C50.6503 23.56 50.2983 24.1 49.7703 24.508C49.2423 24.908 48.5823 25.108 47.7903 25.108C47.1663 25.108 46.6103 24.968 46.1223 24.688C45.6423 24.408 45.2663 24.012 44.9943 23.5C44.7223 22.988 44.5863 22.388 44.5863 21.7ZM56.0474 18.304C56.5434 18.304 56.9914 18.412 57.3914 18.628C57.7914 18.836 58.1034 19.152 58.3274 19.576C58.5594 20 58.6754 20.516 58.6754 21.124V25H57.5954V21.28C57.5954 20.624 57.4314 20.124 57.1034 19.78C56.7754 19.428 56.3274 19.252 55.7594 19.252C55.1834 19.252 54.7234 19.432 54.3794 19.792C54.0434 20.152 53.8754 20.676 53.8754 21.364V25H52.7834V16.12H53.8754V19.36C54.0914 19.024 54.3874 18.764 54.7634 18.58C55.1474 18.396 55.5754 18.304 56.0474 18.304Z" fill="#808191"/>
<g opacity="0.5">
<path fill-rule="evenodd" clip-rule="evenodd" d="M602.913 23.8263C605.627 23.8263 607.826 21.6266 607.826 18.9131C607.826 16.1997 605.627 14 602.913 14C600.2 14 598 16.1997 598 18.9131C598 21.6266 600.2 23.8263 602.913 23.8263Z" stroke="#808191" stroke-width="1.5" stroke-linecap="round" stroke-linejoin="round"/>
<path d="M606.719 22.7189L609.807 25.807" stroke="#808191" stroke-width="1.5" stroke-linecap="round" stroke-linejoin="round"/>
</g>
</svg>
